<svg xmlns="http://www.w3.org/2000/svg" viewBox="0 0 626.71 367.75"><defs><style>.cls-1{font-size:117.25px;fill:#f5cb5c;font-family:Staatliches-Regular, Staatliches;}.cls-2{letter-spacing:-0.01em;}.cls-3{letter-spacing:0em;}.cls-4{letter-spacing:-0.01em;}.cls-5{letter-spacing:-0.02em;}.cls-6{letter-spacing:-0.05em;}.cls-7{letter-spacing:-0.06em;}.cls-8{fill:#f6f8f2;}</style></defs><g id="Capa_2" data-name="Capa 2"><g id="Layer_1" data-name="Layer 1"><text class="cls-1" transform="translate(0 237.42)">&lt;deve<tspan class="cls-2" x="254.55" y="0">l</tspan><tspan class="cls-3" x="299.46" y="0">o</tspan><tspan class="cls-4" x="353.04" y="0">p</tspan><tspan class="cls-5" x="406.39" y="0">c</tspan><tspan class="cls-6" x="457.4" y="0">a</tspan><tspan class="cls-7" x="501.83" y="0">t</tspan><tspan x="541.7" y="0">/&gt;</tspan></text><path class="cls-8" d="M143.75,0c-35.44.05,10.43,147.42,16,138.73,4.56-7,34.09-55.13,95.15-67.63C271.53,67.7,179.2,0,143.75,0Zm87.61,66.12c-1.42-.57-2.85-1.08-4.27-1.61-2.87-1-5.74-2-8.63-2.92s-5.76-1.82-8.67-2.58a73.18,73.18,0,0,0-8.57-1.85c-.43-.06-.85-.08-1.26-.11a26.81,26.81,0,0,0,2.47,2.57l.4.36.36.31.87.74a19.14,19.14,0,0,0,1.67,1.32c.53.41,1.11.83,1.73,1.24s1.2.81,1.83,1.21c1.23.79,2.53,1.56,3.82,2.34,2.58,1.58,5.22,3.18,7.83,4.83l5.43,3.4-6.17,1.16a102,102,0,0,1-11.14,1.16c-3.63.28-7.24.46-10.81.89a65.89,65.89,0,0,0-10.56,1.94c-.86.25-1.71.51-2.56.81s-1.68.62-2.51,1-1.62.78-2.42,1.22-1.55.93-2.31,1.46a22.57,22.57,0,0,1,2-1.9c.72-.59,1.46-1.15,2.23-1.67a35,35,0,0,1,4.93-2.67,57,57,0,0,1,10.65-3.36c3.64-.8,7.28-1.41,10.89-1.91l3.66-.55-1.9-1c-1.36-.76-2.71-1.5-4.07-2.33-.67-.4-1.35-.83-2-1.27s-1.33-.89-2-1.41-1.38-1-1.93-1.5l-.88-.74-.5-.45-.45-.42a31.09,31.09,0,0,1-3.44-3.71,9.24,9.24,0,0,1-1.54-2.92,4.38,4.38,0,0,1,.17-3.07,4.07,4.07,0,0,1,1.19-1.48A4.55,4.55,0,0,1,196.1,52a8.22,8.22,0,0,1,3.35-.38,22.43,22.43,0,0,1,2.6.34c1.63.31,3.17.72,4.7,1.17s3,.94,4.46,1.5c2.91,1.13,5.79,2.27,8.58,3.65s5.54,2.76,8.2,4.35c1.34.76,2.64,1.62,3.92,2.5A26,26,0,0,1,235.52,68C234.17,67.28,232.76,66.71,231.36,66.12Z"/><path class="cls-8" d="M483,0C447.5,0,355.17,67.7,371.76,71.1c61.06,12.5,90.6,60.58,95.15,67.64C472.53,147.42,518.39.05,483,0ZM446.5,83.54c-.8-.44-1.61-.84-2.43-1.22s-1.65-.69-2.49-1-1.71-.56-2.56-.81a66.51,66.51,0,0,0-10.56-1.94c-3.58-.43-7.19-.61-10.82-.89a102.28,102.28,0,0,1-11.14-1.16l-6.16-1.16,5.42-3.4c2.61-1.65,5.25-3.25,7.84-4.83,1.29-.78,2.58-1.55,3.81-2.34.64-.4,1.24-.81,1.83-1.21s1.2-.83,1.73-1.24,1.08-.78,1.68-1.32l.86-.74.36-.31.4-.36a26.81,26.81,0,0,0,2.47-2.57c-.41,0-.82.05-1.26.11A74.23,74.23,0,0,0,416.9,59c-2.89.76-5.76,1.7-8.65,2.58s-5.77,1.89-8.63,2.92c-1.42.53-2.86,1-4.27,1.61A44.46,44.46,0,0,0,391.18,68a25.27,25.27,0,0,1,3.61-2.91c1.28-.89,2.58-1.75,3.92-2.51,2.66-1.59,5.41-3,8.21-4.35s5.66-2.52,8.57-3.65c1.46-.56,2.94-1.06,4.46-1.5a47.66,47.66,0,0,1,4.71-1.17,22.54,22.54,0,0,1,2.59-.34,8.22,8.22,0,0,1,3.35.38,4.91,4.91,0,0,1,1.23.67A4.05,4.05,0,0,1,433,54.11a4.38,4.38,0,0,1,.17,3.07,9.66,9.66,0,0,1-1.54,2.92,30.33,30.33,0,0,1-3.45,3.71l-.43.42-.51.45-.88.73c-.55.49-1.24,1-1.92,1.51s-1.37,1-2,1.41-1.35.87-2,1.27c-1.36.83-2.72,1.57-4.07,2.33l-1.9,1,3.65.55c3.63.5,7.27,1.11,10.9,1.91a57.36,57.36,0,0,1,10.66,3.36,34.32,34.32,0,0,1,4.92,2.67c.78.52,1.51,1.08,2.23,1.67a24,24,0,0,1,2,1.89C448.05,84.48,447.28,84,446.5,83.54Z"/><path class="cls-8" d="M326.64,263.92c-2.56-5.43-18.53-2.88-18.54-2.87s-16-2.56-18.54,2.87,12.14,19.83,18.54,19.83h0C314.49,283.75,329.2,269.36,326.64,263.92Z"/><path class="cls-8" d="M338.26,279.19l7.44,1.52c2.38.42,5.2,1.25,8.45,2.16,1.63.47,3.38.92,5.19,1.49l5.63,1.93c4,1.29,8.13,3,12.58,4.65s9.08,3.62,13.84,5.66,9.69,4.08,14.72,6.13c2.5,1.06,5.07,2,7.62,3s5.1,1.95,7.73,2.82L452,319.39c4.88,1.71,9.56,3.51,14.06,5l12.65,4.32c7.84,2.65,14.33,5,18.89,6.62l7.15,2.57s-2.65-.76-7.32-2.07-11.29-3.24-19.22-5.67l-12.81-3.89c-4.56-1.33-9.3-2.93-14.2-4.63l-30.68-10.54c-2.61-.89-5.23-1.91-7.78-2.93s-5.15-2-7.64-3.09c-5-2.1-9.95-4.22-14.68-6.3l-13.66-6c-4.37-1.82-8.47-3.65-12.35-5s-7.39-2.87-10.57-3.88-5.95-2.07-8.3-2.62Z"/><path class="cls-8" d="M357.77,302.91l4.62,2.56c2.92,1.68,7.14,4,12.1,6.92s10.81,6.28,16.95,10.05,12.73,7.75,19.3,11.76l9.7,6.15c3.14,2.14,6.3,4.2,9.22,6.31,5.92,4.17,11.17,8.35,15.95,11.52,2.39,1.58,4.57,3.06,6.6,4.2a58.49,58.49,0,0,0,5.28,2.95l4.7,2.42-4.92-1.94c-1.59-.59-3.43-1.49-5.55-2.53a71.13,71.13,0,0,1-6.94-3.8c-2.5-1.47-5.1-3.23-7.87-5l-8.6-5.83c-2.95-2.07-6.08-4-9.22-6.1l-9.78-6-19.08-12.06c-6.1-3.85-11.68-7.62-16.53-10.75s-8.78-5.91-11.58-7.78Z"/><path class="cls-8" d="M276.7,275.68l-6.05.33c-3.84.2-9.35.32-16,.47s-14.31,0-22.55.19c-4.13.05-8.38.13-12.69.27s-8.7.38-13.07.61-8.74.76-13,1.12c-4.26.55-8.53.93-12.63,1.39l-22.33,2.86c-6.55.85-12,1.41-15.86,1.81s-6,.58-6,.58,2.15-.49,5.93-1.23,9.18-1.81,15.69-2.95l10.5-1.86,11.81-1.75c4.1-.49,8.31-1.07,12.64-1.52s8.75-.76,13.16-1,8.82-.47,13.17-.47l6.45-.1,6.3.09c8.26.14,16,.41,22.56.6s12.08.42,15.94.42Z"/><path class="cls-8" d="M264.35,291.24,259,292.82c-1.72.45-3.75,1.13-6.06,1.92s-4.95,1.67-7.79,2.68c-5.72,1.94-12.31,4.47-19.44,7l-11.06,3.77c-3.82,1.17-7.66,2.46-11.64,3.4-3.93,1.1-7.91,1.71-11.75,2.66s-7.61,1.84-11.25,2.82c-7.26,2-14.08,3.87-20,5.24a93.17,93.17,0,0,1-14.54,2.12c-1.76.16-3.16.14-4.1.17l-1.45,0s2-.23,5.5-.76a123.69,123.69,0,0,0,14.2-3.1c5.81-1.57,12.44-4,19.75-6,3.65-1.05,7.44-2.07,11.31-3s7.85-1.78,11.72-2.76c3.88-.83,7.71-2.07,11.5-3.16L225,302.21c3.58-1.21,7.08-2.28,10.38-3.33s6.44-2,9.35-2.88,5.59-1.58,8-2.19,4.46-1.16,6.2-1.48Z"/><path class="cls-8" d="M278.31,265.66l-7.79-1.25L261.58,263l-5.5-.87-6.12-.77-13.77-1.67c-4.88-.64-10.06-1-15.41-1.55s-10.86-1.08-16.49-1.41l-17.06-1.18c-11.45-.53-22.89-1.13-33.63-1.49l-29.34-1.5c-17.18-.94-28.63-1.88-28.63-1.88v-.28l7.89-.07c2.52,0,5.57,0,9.06,0s7.44,0,11.74.1l13.9.28c4.92.05,10.12.36,15.5.55s10.92.51,16.56.94,11.36.8,17.09,1.2,11.44,1,17.06,1.49S215.6,256,221,256.55s10.52,1.08,15.4,1.84l13.77,2,6.1.91,5.48,1,8.9,1.63,7.75,1.42Z"/><path class="cls-8" d="M405.76,271.61c-5.38,0-10.58-.08-15.49.1l-13.87.39-6.16.18-5.56.36c-3.48.23-6.53.43-9,.58-5,.34-7.87.51-7.87.51l0-.26,7.85-.7,9-.8,5.53-.5c2-.09,4-.21,6.17-.33l13.89-.72c4.93-.3,10.13-.25,15.51-.4s10.94-.24,16.59-.15l17.13.11c5.74.14,11.48.28,17.13.4s11.2.38,16.58.6,10.56.49,15.48.89l13.86,1c4.29.31,8.21.7,11.71,1s6.51.59,9,.87l7.85.81,0,.27s-11.49-.13-28.68-.78L473,273.82c-10.73-.65-22.18-1.12-33.62-1.65l-17.1-.43"/></g></g></svg>